# xmcd
# 
# Track frame offsets:
#     150
#     15343
#     33910
#     44360
# 
# Disc length: 800
# 
# Revision: 0
# Processed by: cddbd v1.5.2PL0 Copyright (c) Steve Scherf et al.
# Submitted via: fre:ac v1.0.17
# 
DISCID=22031e04
DTITLE=ねごと - メルシールー
DYEAR=0
DGENRE=
TTITLE0=メルシールー
TTITLE1=ビーチサイド
TTITLE2=ランデブー
TTITLE3=カロン（中島真一 from SEKAI NO OWARI remix)
EXTD=
EXTT0=
EXTT1=
EXTT2=
EXTT3=
PLAYORDER=
